<?xml version="1.0" encoding="UTF-8"?>
<svg xmlns="http://www.w3.org/2000/svg" width="200.64" height="200.64" viewBox="0 0 200.64 200.64">
  <defs>
    <linearGradient id="mapxIconGradient3" x1="20" y1="20" x2="180" y2="180" gradientUnits="userSpaceOnUse">
      <stop offset="0" stop-color="#2F98A8"/>
      <stop offset="1" stop-color="#257C91"/>
    </linearGradient>
  </defs>
  <style>
    path { fill: #fff !important; }
  </style>
  <g id="Layer_3" data-name="Layer 3">
    <circle cx="100.58" cy="99.75" r="99.75" fill="url(#mapxIconGradient3)"/>
  </g>
  <g id="Layer_1" data-name="Layer 1">
    <g>
      <path d="M47.2,138.45c-3.98-.71-6.33-4.24-6.69-8.02-2.45-25.42,1.92-54.73.02-80.56.34-2.84,1.73-4.98,4.26-6.25h108.56c2.53,1.27,3.92,3.41,4.26,6.25l.07,54.54.59.81c16.88,3.55,24.12,23.16,16.15,37.81-8.06,14.83-28.6,17.34-39.98,4.87-.21-.23-2.97-3.63-3.12-3.84-1.05-1.54-2.03-3.76-2.48-5.59h-16.12l2.14,12.56,10.72.14,1.1,1.02-.64,2.38h-54.32c-1.32,0-1.32-3.5,0-3.5h10.86l2.1-12.6h-37.5ZM43.34,50.59v68.61l1.05,1.05h84.81c4.48-9.54,13.99-16.47,24.88-15.4l-.37-56c-.98-1.48-2.28-2.35-4.15-2.16H47.17s-2.14.68-2.14.68c-.41.32-1.6,2.7-1.69,3.22ZM148.29,108.52c-21.01,3.28-23.92,36.99-1.95,42.92,34.35,9.28,38.11-48.57,1.95-42.92ZM47.2,134.95h80.25l.7-10.49c-27.94-1.56-56.1-.3-84.11-.71.12,3.26-1.12,10.29,3.16,11.21ZM87.15,151.05h23.13l.77-1.44-2.23-11.2-20.61.05-1.83,11.16.78,1.44Z"/>
      <path d="M113.98,85.81c-7.89,3.5-16.35,10.92-24.1,14.06-3.88,1.57-4.39.82-4.93-3.18l.54-28.84,3.18-.29,25.34,15.36-.03,2.89Z"/>
      <path d="M162.24,121.71c1.02-.17,2.9,1.7,2.05,2.74l-14.18,15.34c-1.4.37-8.92-6.99-9.23-8.11-.26-.94-.22-1.39.59-1.99,2.58-1.8,6.05,5.54,7.97,5.2l12.81-13.2Z"/>
    </g>
  </g>
</svg>
